<svg version="1" xmlns="http://www.w3.org/2000/svg" width="1600" height="1600" viewBox="0 0 1200.000000 1200.000000"><path d="M576.7 74.6c-.1.1-5.1.5-11.2.8-6 .4-12.6.9-14.5 1.2-1.9.2-5.3.6-7.5.9-2.2.2-5.8.7-8 1-5.6.7-11.2 1.4-16.5 2-6 .7-10 1.3-12.6 1.9-1.2.2-3.9.7-6 1.1-7.7 1.2-10 1.7-20.4 4.1-5.8 1.4-15 4-20.5 5.7-5.5 1.7-10.2 3.1-10.5 3.2-.3.1-2.5.8-5 1.5s-4.7 1.4-5 1.4c-.3.1-.9.4-1.5.7-1.2.8-13.6 4.9-15 5-.5 0-1.4.4-2 .9-1.2.9-8.8 3.4-9.4 3.1-.2-.2-.7.1-1 .6-.3.5-2.8 1.7-5.6 2.8-11.6 4.2-30.2 13.4-45.2 22.1-5.1 3-9.7 5.4-10.2 5.4-.6 0-1.1.4-1.1.8 0 .5-1.1 1.4-2.4 2-2.6 1.1-17.3 10.4-19.3 12.2-.7.5-1.5 1-1.8 1-1 0-21.8 14.4-25 17.2-1.6 1.6-3.3 2.8-3.7 2.8-.4 0-1.3.6-2 1.2-.7.7-4 3.5-7.3 6.3-8.8 7.3-32.1 29.9-42.2 41.1-9.2 10.1-11.3 12.5-15.8 18.4-2.7 3.6-5.5 6.9-6.1 7.5-1.9 1.7-13.4 18.5-13.4 19.5 0 .6-.4 1-.8 1-.5 0-1.6 1.5-2.6 3.2-1.8 3.6-2.9 5.5-6.4 11-6.3 10.1-30.2 57.9-30.2 60.4 0 .3-.8 2.4-1.9 4.7-3.8 8.4-13.8 37.4-14.5 42-.1.7-.5 1.8-.9 2.4-.5.7-.6 1.3-.2 1.3.3 0 .1.8-.4 1.8-.6 1.1-1.2 3-1.5 4.3-.2 1.3-1.4 6.2-2.6 10.9-1.2 4.7-2.3 9.2-2.5 10-.2.8-.8 3.5-1.4 5.9-.5 2.5-.8 4.8-.5 5.2.2.4 0 1-.5 1.3-.7.5-2.2 7.6-2.2 10.8 0 .4-.5 2.2-1 4-.6 1.8-1.2 4.4-1.4 5.8-.2 1.4-.6 3.8-.9 5.5-.3 1.6-.8 4.6-1.1 6.5-.3 1.9-.7 4.6-1 6-4.7 26.5-4.9 78.4-.3 108 .6 4.1 1.2 8.8 1.4 10.5.1 1.6.3 3 .4 3 .1 0 .3 1.1.6 2.5 1.7 9.8 6.6 30.2 9.4 39 .6 1.9 1.3 4.2 1.5 5 .9 3.9 6.9 20.6 7.7 21.7.6.7.7 1.3.4 1.3-.4 0-.1 1 .6 2.2.6 1.3 1.3 2.8 1.4 3.4.1.6 3.2 7.1 6.9 14.5 3.8 7.4 7.5 14.7 8.3 16.4.9 1.6 1.8 3.2 2.1 3.5.3.3 1.5 2.3 2.6 4.5s2.4 4.3 3 4.7c.5.4.6.8.2.8-.5 0 1.2 2.9 3.7 6.5s4.6 7 4.6 7.5c0 .4.3 1 .8 1.2.4.1 2.8 3.2 5.4 6.8 2.5 3.6 6 8.1 7.6 10 1.7 1.9 4 4.6 5.2 6 3.6 4.2 12.5 13.3 16.1 16.5 8.4 7.4 23.3 17.7 24.3 16.8.3-.4.6-.1.6.5 0 .7.3 1.1.8 1 .4-.1 2.1.5 3.7 1.4 4.9 2.5 17.8 6.8 20.5 6.8 1.4-.1 4.8.3 7.5.9 6.2 1.1 32.4 1.2 38.5.1 6.8-1.2 10.1-2 14.5-3.2 5.2-1.5 4.5-1.3 8-2.7 1.7-.6 3.5-1.3 4.2-1.6.6-.2 4.1-2.2 7.8-4.4 3.7-2.3 6.9-4.1 7.2-4.1 2.4 0 22.8-19.7 30-29 9-11.7 20.2-32.3 24.8-45.5.9-2.8 2.1-5.9 2.6-7 1.9-4.6 7.8-22.5 7.3-22.5-.2 0 0-.8.5-1.8.6-1.1 1.3-3.2 1.6-4.8.7-3.6.9-4.4 1.8-6.9.3-1.1.9-3.4 1.2-5 1.1-5 1.4-6.8 2.4-11.5.5-2.5 1.2-6.3 1.5-8.5.4-2.2.9-5.3 1.2-6.9.3-1.6.7-4.8.9-7 .2-2.3.6-5.2.9-6.6.2-1.4.7-5.2 1.1-8.5.4-3.3.9-7.8 1.3-10 .3-2.2.6-5.2.6-6.8.1-1.5.3-2.7.6-2.7s.5-2.1.6-4.8c.1-4.6.9-16.4 1.9-26.7 1.7-18.1 2.4-27.9 3-39.5.2-4.7.7-11.2 1-14.5.3-3.3.8-9.2 1-13 .2-3.9.4-7 .5-7 0 0 .3-5.1.5-11.3.5-10.8.9-17.8 2.1-36.2.3-4.7.7-11.5.8-15.1.2-3.6.5-7 .7-7.5.7-1.3.3-16.3-.5-20.2-.4-1.8-1.1-3.9-1.6-4.5-.5-.7-2.1-2.6-3.4-4.3-2.9-3.6-9.3-8.2-12.7-9.1-1.3-.3-36.8-.6-78.9-.7-85.5-.1-78.7-.6-86.9 7.2-6.5 6.1-9.1 12-9.5 21.5-.5 10.7 2 18.5 7.8 24.2 8.4 8.4 4.6 7.9 71.1 8.1 32.5.1 59.6.2 60.3.3 1.1.1 1.3 4.1.7 22.3-.7 22.1-1.3 39.3-1.5 39.3-.1 0-.3 4.9-.5 11-.2 6-.6 14.4-1 18.5-.3 4.1-.8 11.3-1 16-.7 11.7-1.3 20.7-2 26-.4 4.3-1.2 11.6-2 19-.2 1.9-.6 4.4-.8 5.5-.3 1.1-.8 4-1.1 6.5-.3 2.5-.8 5.5-1 6.6-.2 1.2-.7 3.9-1 6-.4 2.1-1.6 8.1-2.7 13.4-1.1 5.2-2.2 10.7-2.4 12.2-.3 1.5-.9 3.7-1.4 5-.5 1.3-.9 2.6-.9 3.1-.2 3.3-3.4 14.1-6.1 20.2-.5 1.1-1.5 3.6-2.2 5.5-1.5 4.4-7.1 16.3-7.9 17-.3.3-1.1 1.6-1.7 3-2.4 4.9-10.7 18.1-14.1 22.1-.9 1.2-3.7 4-6.1 6.3-2.4 2.2-4.9 4.6-5.6 5.3-2.6 2.5-17.5 10.3-19.8 10.3-.7 0-1.7.4-2.2.9-2.9 2.7-16 3.2-29 1.1-7.1-1.1-19.5-6.9-29.7-13.8-6.9-4.6-23.8-20-23.8-21.6 0-.4-1.3-2.1-3-3.9-1.6-1.8-3-3.5-3-3.9 0-.5-1.6-3-3.5-5.7-1.9-2.6-3.5-5.3-3.5-6 0-.6-.3-1.1-.7-1.1-.5 0-1.3-1-1.9-2.3-2.3-4.9-6-11.2-6.9-11.9-.5-.4-.7-.8-.2-.8.4 0-.5-1.9-2-4.3-1.4-2.3-2.6-4.3-2.4-4.5.1-.1-.9-2.6-2.2-5.5-1.4-2.8-3.9-8.8-5.7-13.2-1.7-4.4-3.6-8.9-4-10-1-2.3-4.5-13.7-5.6-18-.4-1.7-.8-3.5-1-4-.2-.6-.6-2.4-.9-4-1.2-5.4-1.3-6-1.5-6.5-.1-.3-.2-.8-.2-1.1.1-.4-.3-2.1-.8-3.8-.5-1.7-1.2-5.4-1.5-8.3-.4-2.8-.9-6-1.1-7.2-1.1-5.9-2.1-15.8-2.9-31.6-.9-15.4-.9-21.7 0-34.5.9-14.3 1.5-19.7 4.1-36.5.3-2.5.7-5.1.7-5.8 0-.6.4-1.2.8-1.2.5 0 .6-.6.3-1.4-.3-.8 0-3.3.6-5.7.7-2.4 1.4-5.5 1.5-6.9.2-1.4 1.3-6.8 2.5-12s2.3-10.3 2.5-11.3c.2-.9 1.1-4.5 2-8 .9-3.4 1.9-7.3 2.1-8.7.2-1.4 1.1-4.3 1.8-6.5.8-2.2 1.7-5.4 2.2-7 .4-1.7.8-3.5 1-4 .1-.6 1.6-5.1 3.4-10 1.7-5 3.3-9.5 3.4-10 .3-1 2.1-5.6 3.3-8.5.3-.8.7-1.7.8-2 2.7-8.1 23.6-50.5 27.6-56.1 1-1.4 1.6-2.9 1.2-3.3-.3-.3-.2-.6.4-.6.5 0 1.8-1.8 2.9-4 1-2.2 2.2-4 2.7-4 .4 0 .7-.4.7-1 0-.9 9.7-15.9 11-17 .3-.3 1.9-2.3 3.6-4.5 1.6-2.2 3.9-5.1 5.1-6.5 1.2-1.4 3.1-3.6 4.2-5 11.3-13.4 30.4-33 39.8-40.7 3.4-2.9 6.8-5.6 7.5-6.3 5.3-4.5 27.1-19.6 27.7-19.1.2.1.7-.1 1-.6.7-1 18-12 30.3-19.2 8.3-4.9 34.1-18.1 35.4-18.1.3 0 2-.7 3.7-1.5 14.7-6.7 58.4-21.2 72.7-24.1 1.4-.3 4-.9 5.9-1.4 1.9-.5 3.8-.7 4.3-.4.4.3.8.1.8-.3 0-.5.8-.9 1.8-1 2.2-.2 12.5-1.8 17.2-2.8 1.4-.3 4.5-.7 7-1 2.5-.3 6.1-.7 8-1 4.8-.6 10.4-1.3 17-2.1 3-.3 6.6-.8 8-1 16.2-2.2 57.8-2.2 80 .1 1.9.2 6.7.6 10.5 1 3.9.3 8.6.8 10.5 1.1 1.9.2 5.9.6 8.8 1 2.9.3 6.1.7 7 .9.9.1 5.8 1 10.7 1.9 5 1 12.8 2.6 17.5 3.8 4.7 1.1 9.1 2.1 9.8 2.1.6 0 1.2.4 1.2.9s.4.7.9.4c.5-.4 2.1-.2 3.5.4 1.5.5 3.7 1.2 4.9 1.4 4 .9 6.1 1.5 14.7 4.1 4.7 1.4 9.2 2.7 10 2.9.8.3 3.8 1.2 6.5 2.1 2.8 1 5.5 1.8 6 1.9 2.1.4 16 5.9 16.9 6.7.6.5 1.8.9 2.7.9 1 0 3.8 1.1 6.3 2.4 2.6 1.4 4.6 2.3 4.6 2 0-.7 42.3 20.8 53 27 5.8 3.3 13.3 7.9 16.8 10.3 3.5 2.4 6.6 4.3 6.9 4.3.4 0 1.3.7 2.2 1.5.9.8 7.2 5.6 14.1 10.6 6.9 5.1 12.7 9.6 12.8 10.1.2.4 1 .8 1.7.8s1.5.4 1.7.9c.2.4 5.5 5 11.8 10.2 14.3 11.6 32.4 29.5 48.3 47.8 10.9 12.5 26.6 32.2 28.5 35.8.7 1.2 1.8 2.8 2.4 3.5 2.4 2.5 5.8 7.7 5.8 8.8 0 .5.4 1 .9 1s1.6 1.5 2.5 3.2c.9 1.8 3.6 6.4 6.1 10.3 2.4 3.8 4.4 7.5 4.5 8.2 0 .6.4 1.3.9 1.5 1.3.5 17.5 30.4 23.3 43.3 7.7 16.7 21.7 54.6 23 62.1.2 1 .5 2.1.9 2.4.3.3 1.3 3.6 2.3 7.5.9 3.8 2.2 8.6 2.7 10.5.5 1.9 1.2 4.2 1.4 5 .2.8.4 1.5.5 1.5.1 0 .3.9.5 2s.6 3.1.9 4.5c1 4.3 1.6 7.4 2.2 11 .3 1.9.8 3.8 1 4.2.3.4.7 2.9 1 5.5.2 2.6.7 5.9.9 7.3.5 2.4 1.4 9.5 2 15 .2 1.4.4 2.5.5 2.5.2 0 .3 1 1.4 12 .3 3.3.8 8.7 1.1 12 1.8 17.4 2.2 38.5 1.1 54.5-.4 5.2-.9 12.2-1.1 15.5-.9 14.4-1.7 22.2-3 31.5-.3 1.9-.8 5.5-1.1 8-.3 2.5-.7 5.8-1 7.5-.3 1.6-.7 3.9-.9 5-.1 1.1-.5 3.1-.9 4.5-.3 1.4-.8 3.7-1.1 5.2-1 5.7-2 9.6-4.1 17.3-.9 3.3-1.8 6.7-2 7.5-.2.8-1.1 4.2-2 7.5-.9 3.3-1.7 6.7-1.9 7.5-.2.8-1.1 3.7-2 6.4-.9 2.6-1.8 5.6-2 6.5-.2.9-1.1 3.6-2 6.1-.9 2.5-1.8 5.2-2 6-.2.8-2.9 7.8-6 15.5s-5.8 14.9-6 16c-.3 1.1-.9 2.1-1.5 2.3-.5.2-1 .8-1 1.4 0 .5-1.4 4-3.2 7.6-1.7 3.7-3.2 6.9-3.3 7.2-.3 1.2-6.4 12.8-8.3 16-1.2 1.9-2.6 4.5-3.2 5.8-.5 1.2-2.8 5-5 8.3-2.2 3.3-4 6.4-4 6.8 0 .4-.9 1.6-2 2.6s-1.8 2-1.5 2.3c.3.3-.1 1.2-.9 2.1-2.9 3.4-17 24.8-18.3 27.9-1.9 4.6-1.9 11.7.1 14.7 3 4.5 9.2 6.9 18.1 6.9 5.9 0 8.7-.4 10.6-1.7 1.4-.9 2.9-1.4 3.2-1 .4.3.7.2.7-.4 0-.5 1.8-1.8 4-2.8 2.2-1 4-2.2 4-2.6 0-.4.8-1 1.8-1.3 3.1-1.1 13.6-11.8 16.2-16.6.6-1.2 2-3.1 3-4.3 1.1-1.2 1.9-2.6 1.9-3.1s.4-1.2 1.1-1.6c3-1.9 24-41.4 24-45.3 0-.9.4-1.7.9-1.7s1.4-1.5 2.1-3.2c.7-1.8 2.3-5.6 3.6-8.3 6.7-15 19.5-49.6 20.7-56.2.2-1 .7-2.5 1-3.3.9-2.5 2.7-8.6 3.1-10.6.2-1 1.1-4.4 2-7.5.9-3.1 1.9-6.5 2.1-7.5.2-1.1.9-3.9 1.6-6.4 1.5-6.3 1.5-6.3 3.9-17.5 1.1-5.5 2.3-11.6 2.5-13.5.5-4.3 1.2-9.4 1.9-14 1-6.1 2.4-21.3 3.1-32 .2-2.5.6-8.8 1.1-14 .4-5.2.7-19.2.7-31 0-19.4-.4-27.1-1.7-39.5-.3-2.2-.8-7.2-1.1-11-1.1-11-1.2-12-1.9-16.1-.8-5-1.5-9.9-2.1-14.6-.6-5.2-1.4-10.4-2.5-15.8-.6-2.5-1.2-5.6-1.4-7-.2-1.4-.9-4.5-1.6-7-.7-2.5-1.4-5.4-1.6-6.5-.4-2.3-1.4-6.5-1.8-8-.1-.6-.8-3-1.5-5.5-1.4-5.2-6.9-22.8-7.8-25-.3-.8-.8-2.4-1-3.5-.2-1.1-1.2-4.3-2.2-7-1.1-2.8-3.4-9.1-5.1-14-1.7-5-3.5-9.9-4-11-.7-1.7-1.9-4.9-2.5-6.5-1.2-3.5-10.2-22.7-15-32-7.1-13.8-8-15.5-8.7-15.8-.5-.2-.8-.8-.8-1.4 0-1-17.8-31.9-18.9-32.8-.3-.3-1.2-1.7-2-3.3-.8-1.5-1.8-2.7-2.3-2.7-.4 0-.8-.6-.8-1.4 0-.7-2.1-4.3-4.7-7.9-2.7-3.6-5.5-7.5-6.3-8.7-2.9-4.2-7.2-9.5-8.3-10.2-.7-.4-.9-.8-.5-.8.5 0-.1-1-1.1-2.3-7.5-8.9-19.7-23.4-20.6-24.3-.5-.6-3.9-4.5-7.5-8.5-8.7-9.9-32-33.1-39.9-39.9-3.6-3-7.6-6.5-9-7.7-3.3-2.8-2.8-2.5-14.1-11.3-5.2-4.1-9.6-7.8-9.8-8.2-.2-.5-.8-.8-1.3-.8s-2.3-1.2-3.9-2.7c-1.6-1.4-4.1-3.3-5.4-4.2-7.7-5.1-15.1-10.6-15.4-11.3-.2-.4-.8-.8-1.2-.8-.5 0-4.5-2.4-8.9-5.3-8-5.2-14.2-9-15.1-9.2-.3 0-2.5-1.2-5-2.7-2.5-1.5-5.8-3.2-7.5-4-1.6-.7-3.2-1.5-3.5-1.8-.3-.3-3.6-2.1-7.5-4-3.8-1.9-7.2-3.7-7.5-4-.3-.3-3.9-2.1-8-4s-7.8-4-8.2-4.5c-.4-.6-.8-.7-.8-.2 0 .4-2.2-.4-5-1.8-5-2.5-28.3-12.3-31-13.1-.8-.2-5.5-1.7-10.5-3.4-4.9-1.7-9.7-3.3-10.5-3.5-.8-.2-4.3-1.2-7.7-2.3-3.4-1.1-6.5-1.7-6.8-1.4-.3.3-.5 0-.5-.7s-.4-1-.9-.7c-.5.3-2.8-.1-5.1-.9-2.4-.8-5.2-1.7-6.4-1.9-1.2-.2-4.1-1-6.6-1.7s-4.7-1.3-5-1.4c-2.2-.5-7-1.5-9.2-1.9-1.5-.3-3.1-.7-3.6-1-.5-.3-2.2-.8-3.8-1-1.6-.3-4-.8-5.4-1.1-1.4-.3-4.2-.7-6.4-1-2.1-.3-4.1-.7-4.5-.9-.4-.3-2.7-.7-5.2-1-2.4-.3-6-.8-7.9-1-15.5-2-25.6-3-44.5-4.2-9.4-.6-54.2-1.3-54.8-.8z"/><path d="M697.9 249.4c-.2.3-4.8.6-10.2.7-7 .2-10.1.7-11 1.7-1.8 2.2-1.8 73.1 0 75.3 1.8 2.1 19.2 2.6 25.3.8 8.7-2.6 17.2-14.1 18.9-25.4.8-5.1.7-22.9 0-27.5-.9-5.5-4.3-12.3-8.3-16.8-3.5-3.8-10.1-7.9-12-7.4-.5.2-1.2-.2-1.6-.8-.3-.5-.8-.8-1.1-.6zm-1 11.2c4.4.9 8.3 4.6 11 10.3 2.3 5 2.6 6.9 2.7 18.1.1 6.9-.1 12.9-.4 13.5-.4.5-.7 1.6-.8 2.3-.5 3.1-4.8 10.4-7.2 12.1-3.6 2.5-11.5 4.7-12 3.3-.2-.6-1-.8-1.8-.5-1.6.6-1.5 1.3-1.5-37.2 0-20.1.2-22 1.8-22.7 1-.4 2.7-.5 3.8-.2 1.1.3 3.1.7 4.4 1zM561.5 251c-1.1.4-2.3.6-2.7.3-.5-.2-.8.1-.8.8 0 .7-.3.9-.6.6-1-.9-11.4 7.1-11.4 8.7 0 .4-.7 1.4-1.5 2.3-.8.8-1.3 1.9-1 2.4.4.5.2.9-.3.9-.9 0-2.9 6.1-4.1 12.5-.7 3.8-.5 19.2.3 22.5.3 1.4.8 3.6 1.1 4.9.2 1.2.9 2.9 1.5 3.5.5.7.7 1.6.3 1.9-.3.4-.1.7.5.7.7 0 1.1.4 1 1-.6 2.4 9 12.2 13.2 13.5.3.1 1.3.5 2.2.9 1 .5 5.3.6 9.5.3 8.4-.5 10.1-.8 12.1-2 .6-.5 1.2-.6 1.2-.3s1.1-.4 2.5-1.6c2.9-2.5 3-2.8 1-7.4l-1.4-3.5-5.8 3.1c-3.1 1.7-6.3 2.8-7 2.6-.7-.3-1.3-.1-1.3.4 0 2.3-9.6-1.4-12.8-5-10.1-11-10.1-38.7-.1-49 5.8-6 11.9-6.8 20.4-2.4 6 3 7.7 2.6 9-2.3.8-3.2-1.2-5.5-7.2-8.3-4.7-2.2-14.3-3.3-17.8-2zM625.5 251c-1.1.4-2.3.6-2.7.3-1.2-.6-10 8.6-9.3 9.7.3.6.2 1-.2 1-1 0-1.5 2.8-1.5 8 0 7.5 2.2 12.5 7.7 17.6 2.1 1.8 4.1 3.1 4.6 2.8.5-.3.9-.1.9.5 0 .5 1 1.3 2.2 1.7 1.3.4 3.9 1.8 6 3.1 3 2.1 3.9 3.4 4.9 7.7 1.1 5 .3 11.2-1.8 14.1-1.6 2.2-6.3 3.5-8.4 2.5-1-.6-1.9-.8-1.9-.5 0 .6-5.8-2.2-7.9-3.8-2.4-2-4.2-1.6-5.2 1.1-2.1 5.4-1.9 6.2 1.9 8.5 2 1.2 3.9 2.2 4.2 2.2.3 0 1 .3 1.5.6.6.4 4.6.7 9 .8 7.1.2 8.4-.1 12-2.4 4-2.7 7.5-8 7.5-11.5 0-1 .5-2.2 1-2.5.7-.4.7-1.1.2-1.8-.5-.7-.6-2.1-.2-3.2.4-1.1.4-2.7 0-3.5-.4-.8-1-3.1-1.4-5-1-5.3-6.2-10.6-14.6-14.9-8.1-4.1-11.2-7.7-11.3-13.4-.2-5 2.1-9.6 5.2-10.4 3.8-1 4.5-1 5.9 0 .6.5 1.2.7 1.2.4 0-.9 6.3 1.4 8 2.9 1.2 1 1.9 1 3.4-.2 1.1-.8 1.7-1.4 1.4-1.4-.4 0-.3-1.3.2-2.9.6-2.3.4-3.3-1.1-4.7-1-.9-1.9-1.4-1.9-1.1 0 .3-1.7-.1-3.7-1-4.1-1.7-12.7-2.4-15.8-1.3zM470.2 252.3c-1.1 1.4-.9 51.3.2 57.7 1.1 6.5 4.6 12.9 8.9 16.4 3.3 2.6 4.8 3.1 10.8 3.4 8.1.5 12.1-1 16.7-6.2 3.9-4.5 6.4-12.1 6.7-21.1.2-4.1.6-7.9 1-8.4.3-.6.3-1.1-.2-1.1-.4 0-.7-9.2-.7-20.5.1-16.8-.1-20.5-1.2-20.6-.8-.1-3.1-.2-5.1-.3l-3.8-.1-.5 29c-.5 27.9-.6 29.2-2.8 33.8-1.3 2.6-2.8 4.5-3.2 4.2-.5-.3-1.1-.1-1.5.5-.4.6-1 .8-1.5.5-.5-.3-1.1-.1-1.5.4-.9 1.6-6.2-.8-8-3.6-3.2-4.8-3.6-8.9-3.5-36 0-18.6-.3-27.4-1-27.8-2-1.3-8.9-1.3-9.8-.2zM870.5 366.8c-1.6.8-3.5 2-4 2.6-2.6 2.6-7.3 10.5-9.4 15.6-1.2 3-2.6 6.4-3.1 7.5-1.7 3.5-12.7 31.8-15 38.5-1.3 3.6-2.8 7-3.3 7.7-.5.7-.6 1.7-.2 2.3.3.5.1 1-.4 1-.6 0-1.1.8-1.1 1.8s-.7 2.7-1.5 3.9c-.8 1.2-1.6 2.9-1.8 4-.2 1-.9 2.8-1.5 4-.7 1.3-1 2.3-.7 2.3.4 0-.4 1.7-1.7 3.7-1.2 2.1-2.2 4-2 4.3.3.8-3.9 13.4-5.1 14.7-.5.7-.6 1.3-.2 1.3.4 0 .2.7-.5 1.5s-.9 1.5-.5 1.5.3.6-.2 1.2c-.5.7-2 4.2-3.3 7.8-1.3 3.6-3 7.5-3.7 8.6-.8 1.2-1.5 3-1.7 4-.3 1.1-1 3.2-1.7 4.9-.7 1.6-1.2 3.3-1.1 3.7.1.5-.3.8-.8.8-.6 0-1 1-1 2.3 0 1.3-.3 2.7-.7 3.1-.4.3-.8 1.3-.9 2-.1.7-.9 2.9-1.7 4.7-.8 1.9-2 5-2.7 6.9-.7 1.9-1.9 4.8-2.6 6.5-.7 1.6-1.9 5-2.8 7.5-.8 2.5-2.6 7.3-4 10.8-1.3 3.4-2.5 6.4-2.5 6.5 0 .3-1.1 3.5-4.3 11.9-1.6 4.3-2.9 8.1-2.9 8.5 0 .5-.6 1.7-1.3 2.8-1.1 1.8-4.7 10.6-5.2 13-.2.5-1.5 3.9-2.9 7.3-1.5 3.5-2.8 7.1-3 8-.6 3-8.7 26.7-9.5 27.7-.4.5-1.9 4.6-3.4 9s-2.9 8.7-3.3 9.5c-.3.8-.7 1.9-.9 2.5-.1.5-1.6 4.4-3.2 8.5s-6 15.4-9.7 25c-3.6 9.6-7.2 18.8-8 20.5-.7 1.6-1.7 4.1-2.1 5.5-.3 1.4-1.5 4.3-2.4 6.5-1.9 4.1-5.4 13.4-5.6 14.7-.1.5-.3 1-.4 1.3-.1.3-.4.9-.5 1.5-.1.5-.4 1.2-.5 1.5-.1.3-.3.8-.4 1.2-.1.5-.4 1.2-.7 1.8-.4.5-1 2.6-1.5 4.5-.4 1.9-.9 3.9-1 4.5-.1.5-.5 2.8-.9 5s-.9 4.3-1.1 4.7c-.2.4.1 1 .7 1.3.5.4.8 1.3.5 2-.2.7-.2 1.6.2 1.9.3.4.7 1.3.8 2.2.4 2.8 4.6 9.9 7.5 12.6 4.7 4.6 9.5 6 17.5 5.5 3.9-.3 8.4-1.2 10.1-2 7.1-3.7 14.3-15.2 21-33.2 1.7-4.4 3.4-8.9 3.8-10 .5-1.1.9-2.2 1-2.5.1-.3.5-1.2.8-2 .4-.8 2.3-6 4.2-11.5 2-5.5 4-11.1 4.7-12.5.6-1.4 1.4-3.4 1.8-4.5.4-1.1 1.7-4.5 2.9-7.5 1.3-3 2.3-6 2.5-6.5.1-.6 1.6-4.6 3.3-9 3.9-10.1 4.6-11.9 4.7-12.5.1-.3.4-1 .7-1.5.4-.6 1.2-2.8 1.9-5s2-5.6 2.8-7.5c.9-1.9 1.6-3.7 1.7-4 .1-.3.7-1.7 1.3-3.2l1.1-2.7 54.5.1h54.4l.6 3.2c.3 1.7.8 4 1 5.1.2 1.1.7 5.1 1.1 9 .4 3.8.8 7.7 1 8.6.2.8.6 4.7 1 8.5.3 3.8.8 8.7 1.1 10.9.4 3.6.8 8.2 1.8 21.5 1.4 17.8 1.8 26.4 1.7 32-.1 3.6-.2 6.9-.2 7.5.6 19.4-1.7 56.4-4.4 70.5-.6 2.9-1.8 12.4-1.9 14.2 0 1-.3 1.8-.6 1.8-.4 0-.7.6-.7 1.2-.2 2.5-1.2 8.3-1.7 9.8-.3.8-.7 2.6-1 4-.6 3.9-6.5 23.9-8.7 30-1.2 3-2.2 5.9-2.3 6.5-.1.5-1 2.7-1.9 4.9-.9 2.1-1.7 4-1.7 4.1 0 .1-1.2 2.9-2.7 6.1-1.5 3.3-2.7 6.1-2.8 6.4-.3 1.4-7.5 15-9.8 18.7-1.5 2.4-2.7 4.5-2.7 4.8 0 .3-1.6 2.8-3.5 5.5s-3.5 5.2-3.5 5.5c0 .6-1.4 2.4-4.2 5.6-1 1-1.8 2.2-1.7 2.5.1.3-1.2 2.1-2.7 3.9-1.6 1.8-3.8 4.5-4.9 6.1-1.1 1.5-2.4 3.2-3 3.8-.5.6-3.5 4-6.5 7.5-13.1 15.4-25.9 26.2-46 39.1-.8.5-3.5 2.3-6 4-2.5 1.6-4.9 3-5.4 3s-1.7.6-2.5 1.4c-2.7 2.4-31.9 16.6-34.1 16.6-.6 0-1.8.4-2.8.9-.9.6-6.2 2.4-11.7 4.1-5.5 1.7-10.7 3.4-11.5 3.7-.8.4-1.9.5-2.4.4-.4-.1-1.4.4-2.2 1-.8.6-1.4.9-1.4.6 0-.4-1.9 0-4.1.9-2.3.8-5.1 1.6-6.3 1.8-1.2.3-4.9 1.2-8.3 2.1-6.7 1.7-9.6 2.4-12.8 3-1.1.1-3.8.6-6 1-2.2.5-4.9.9-6 1.1-1.1.1-2 .3-2 .4 0 .2-1 .3-9.6 1.4-3.1.4-6.6.8-7.7 1.1-1.1.2-5.7.6-10.2 1-4.5.4-9.2.8-10.3 1.1-3.9.7-26.9 1.7-40.2 1.7-12.7.1-41-1.5-41-2.3 0-.1-1.6-.3-3.5-.5s-6.2-.7-9.5-1c-3.3-.4-7.2-.8-8.7-.9-1.6 0-2.8-.3-2.8-.6s-1.5-.5-3.2-.4c-1.8 0-4-.3-4.8-.7-.8-.4-4-1-7-1.4-3-.3-8.4-1.3-12-2.1-3.6-.9-7.4-1.7-8.5-1.9-6.4-1.3-24.9-6.1-38.5-10.1-4.7-1.4-10.9-3.2-13.8-4-3-.8-6.2-1.9-7.3-2.4-1-.6-1.9-.8-1.9-.5 0 .3-1.5-.1-3.4-.9s-3.7-1.2-4-.8c-.3.3-.6 0-.6-.6 0-.7-.3-1.1-.7-1-2.3.5-22.9-7.6-40-15.8-6.5-3.1-13.3-6.3-15.1-7.1-1.9-.8-8.6-4.3-14.9-7.9-6.3-3.5-11.7-6.4-12-6.4-.2 0-1.6-.8-3.1-1.9-6.5-4.5-15.2-10.1-15.6-10.1-1.6 0-33.2-23.8-47.6-35.9-10.3-8.6-36.9-36-48.6-50-1.6-1.9-3.8-4.4-4.9-5.6-3.2-3.4-9.8-11.4-17.4-21-3.8-5-7.7-9.8-8.5-10.8-.9-.9-1.6-2-1.6-2.5 0-.6-1.6-2.7-6-7.9-.5-.7-1-1.5-1-1.8 0-.3-1.6-2.8-3.5-5.5s-3.5-5.2-3.5-5.4c0-.3-1.7-3.1-3.8-6.3-2.2-3.2-5.4-8.5-7.2-11.8-1.8-3.3-4.1-7.1-5-8.5-3.7-5.3-22.2-43.1-22.6-46 0-.3-.8-2.3-1.8-4.5-3-6.8-14.8-41.3-16.1-47-.3-1.1-1.4-5.6-2.5-10-2.4-9.6-3.1-12.4-3.5-15-.2-1.1-.4-2-.5-2-.1 0-.3-.7-.5-1.5-.9-4.4-1.6-7.8-2-10.5-.3-1.7-.7-4-1-5.3-.3-1.2-.7-3.2-1-4.5-.3-1.2-.7-3.6-1-5.2-.9-6.9-2.2-14.6-2.9-18-1-5.3-2.5-22.1-3.1-36-.7-16.2-1.2-19-3.8-23.2-5.4-8.4-8.5-9.9-18.8-9.4-3.3.1-10.3 7-13.4 13.1-6.1 12-7.9 22.1-7.9 45.5 0 17.2 1.1 28.3 4.5 43.3.5 2.3 1.2 5.9 1.5 8 .3 2 1.5 7.5 2.6 12.2 1.8 7.7 2.7 11.8 3.2 14.5.1.5.5 1.6.9 2.2.5.7.6 1.3.3 1.3s.1 1.8.9 4 1.5 4.4 1.5 4.8c.1 1.1 1.1 5.5 1.6 7 .2.7.4 1.6.5 2 .1.4 1.3 3.8 2.6 7.7 1.3 3.8 2.6 7.7 2.8 8.5 1.4 5.7 13.1 36.3 17.4 45.5 1.1 2.2 3.3 6.9 4.9 10.5 2.8 5.9 7.7 15.1 15.9 30 4.5 8.2 9.7 16.5 10.6 16.8.4.2.7.8.7 1.4 0 1.2 12.2 20.2 13.2 20.6.5.2.8.9.8 1.6 0 .7.8 2.1 1.8 3.2.9 1 3.8 4.9 6.4 8.5 4.6 6.5 20.2 26.1 23.6 29.8.9 1 4 4.4 6.7 7.6 5.3 6.1 7.2 8.2 17.5 19.5 9.1 10 34.7 35.6 41 41 2.9 2.5 5.8 5 6.4 5.6.9.8 14.7 11.7 27.6 21.7.9.7 4.5 3.2 8 5.6 3.6 2.5 6.7 4.7 7 5 .3.4 1.3 1 2.2 1.6 1 .5 6.5 4 12.2 7.7 5.8 3.7 12.4 7.8 14.8 9 2.4 1.2 4.5 2.4 4.8 2.7 1.2 1.4 35 18.2 50 24.9 6.5 2.9 19.4 8 27.5 10.9 3.9 1.3 7.7 2.7 8.5 3 .8.3 2 .7 2.5.8.6.2 5.1 1.5 10 3 12.8 3.8 18.7 5.5 20.9 6 1 .2 6 1.6 11 3 11.9 3.3 15.5 4.3 19.1 5.1 1.7.4 3.5.8 4 1 .6.1 2.1.4 3.5.7 1.4.3 4.8 1 7.5 1.7 4.3 1 9.7 2 24.5 4.5 1.4.2 4.8.7 7.5 1 2.8.3 6.6.7 8.5 1 3.3.4 11 1.4 17.5 2 22.6 2.4 73.1 2.4 92 0 1.7-.2 5.7-.6 9-.9 11.3-1.1 20.2-2.2 26.5-3.3 1.9-.3 4.2-.7 5-.7.9-.1 2.1-.5 2.8-1 .6-.4 1.6-.5 2.1-.2.5.4 2 .2 3.3-.3 1.4-.5 4.2-1.2 6.4-1.5 2.1-.4 5.7-1.1 7.9-1.7 2.2-.6 4.8-1.3 5.8-1.5 1-.2 2.7-.6 3.7-.9 1-.3 2.7-.8 3.7-1 3.2-.7 21.7-6.3 24.4-7.3 1.5-.6 3-.8 3.3-.5.3.4.6 0 .6-.7s.3-1.1.6-.7c.3.3 2.8-.3 5.5-1.3 2.7-1.1 4.9-1.7 4.9-1.4 0 .4.6.2 1.3-.3.6-.6 3-1.6 5.2-2.3 2.2-.7 4.5-1.6 5-2 .6-.5 1.3-.9 1.7-.9 2.3-.4 24.7-11 25.8-12.2.3-.3 1.3-.8 2.3-1.2 3-1.1 30.8-18.8 38.7-24.6 14.8-10.9 26.6-21.9 40.6-37.7 3.8-4.4 7.1-8.1 7.4-8.4.3-.3 1.7-2.1 3.2-4.2 1.5-2 3.3-4.2 4.1-5 2-2.1 14-18.8 17.7-24.8 1.9-3 3.7-5.7 4-6 .4-.3 2.6-4.1 4.9-8.5 2.4-4.4 4.6-8.5 5-9 .3-.6.6-1.2.6-1.5.1-.3 2.2-4.8 4.7-10 5.5-11.4 8-16.9 8.2-18.4.1-.6.4-1.6.7-2.1.4-.6 1.2-2.8 1.9-5s1.8-5.4 2.5-7c.8-1.7 2.5-6.8 3.9-11.5 2.5-8 2.9-9.8 4.2-15.9.3-1.4.7-2.8 1-3.3.3-.5.8-2.1 1.1-3.6.3-1.5.6-3.2.7-3.7.7-2.7 2-9.2 2.2-11 .1-1.1.3-2.1.4-2.3.4-.4.6-1.4 1.4-7.2.5-3 .9-6.2 1.1-7 .3-1.7 1.6-12.1 2.1-16.5.4-3.9 1.5-18.3 1.9-26 .5-7.8.5-56 0-65-.5-10-1.5-25.1-2.1-31-.3-2.8-.6-7.4-.7-10.2-.1-2.9-.4-5.3-.7-5.3-.3 0-.6-1.2-.6-2.8-.2-4-1.3-16.2-1.9-19.7-1.1-7-1.4-9.3-1.9-14.5-.8-6.6-1.3-10.6-2.2-16.3-.3-2.3-.8-5.6-1-7.2-.2-1.7-.5-3.9-.7-5-.3-1.1-.8-4.5-1.2-7.5-.4-3-.9-6.4-1.2-7.5-.2-1.1-.6-3.6-.8-5.5-.2-1.9-.4-3.5-.5-3.5-.2 0-.7-2.5-1.3-7.5-.6-4.4-1.2-7.9-2.2-13-.3-1.4-.8-3.9-1-5.5-.3-1.7-.8-4.1-1-5.5-.3-1.4-.8-3.9-1.1-5.5-.3-1.7-1-5-1.5-7.5-.6-2.5-1.3-5.6-1.5-7-.2-1.4-1.6-7.5-3.1-13.5-1.4-6.1-2.7-11.9-2.9-13-.1-1.1-.3-2-.4-2-.1 0-.4-.8-1.3-4.5-.2-.8-.7-3.3-1.1-5.5-.4-2.2-1-4.7-1.3-5.5-.7-1.7-.9-2.5-1.7-6-.8-3.9-1.4-6.2-2.5-9.9-.6-1.8-1-3.6-.9-4 .1-.3-.2-1.3-.5-2.1-.5-1.2-4.9-17.7-6.2-23-.2-.8-.4-1.5-.5-1.5-.1 0-.3-1.1-.6-2.5-.2-1.4-1.1-4.5-1.8-7-.8-2.5-2.1-7.2-3.1-10.5-.9-3.3-2.3-8.3-3.1-11-.8-2.8-1.9-6.8-2.5-9-.6-2.2-1.5-5.1-1.9-6.5-.5-1.4-1.9-5.9-3.1-10-7.2-24.7-10.3-31.3-17-35.7-3.4-2.3-5.2-2.7-12.2-2.9-5.8-.1-9.1.3-11.2 1.4zm12.2 111.4c0 .7 1.1 4.9 2.3 9.3 2.6 9.7 5.9 22.3 6.4 25 .3 1.1 1.4 5.8 2.6 10.5 2.1 8.4 2.6 10.7 3.5 14.5.2 1.1.6 2.9.9 4 .2 1.1 1.4 5.8 2.5 10.5s2.3 9.8 2.5 11.5c.3 1.6 1 5.2 1.6 8 1.3 5.7 2 9.9 2.3 13.5.2 1.4.6 3 .9 3.5.4.6.9 3.9 1.3 7.2l.6 6.2-39 .1h-39l.9-2.7c.4-1.6 1.7-4.9 2.9-7.6 1.1-2.6 2.1-5.1 2.1-5.5.1-.4 1-2.7 2.1-5.1 1-2.4 1.9-4.5 1.9-4.7 0-.2.8-2.3 1.9-4.7 1-2.3 2.4-5.8 3.1-7.7 1.3-3.4 3.3-8.4 5.1-12.5.8-1.9 3-7.4 3.4-8.5.1-.3.5-1.4 1-2.5 4.3-10.4 15.6-39.3 16-40.5.2-.8.4-1.6.5-1.8.2-.1.3-.5.5-1 .1-.4 1.1-2.8 2.3-5.4 1.1-2.5 2.9-6.9 3.9-9.7 1.7-4.9 2.9-6.4 3-3.9z"/><path d="M596.8 368.1c-.7.4-3.2 1-5.5 1.4-2.4.4-4.5 1.1-4.9 1.6-.3.5-1 .7-1.5.3-.5-.3-1.6-.1-2.3.5-.8.7-4.2 2.5-7.7 4.2-3.5 1.7-7.6 4-9.2 5.2-5.1 3.8-17.6 16.6-22 22.5-2.3 3.1-4.5 5.9-4.8 6.2-.6.5-6.5 12.6-10.2 21-2 4.6-6.9 23.1-6.3 23.8.3.2.1 1.3-.5 2.3-1 1.9-1.8 13.3-1.9 25.4-.1 8.2 1.2 24 2 24 .1 0 .3 1.3.6 3 .9 6.4 2.9 13.5 5.7 20 1.9 4.6 7.7 14.4 10.2 17.1.6.7 2.6 3.1 4.5 5.5 5.6 6.8 15 15.8 22 21 3.6 2.7 7.4 5.7 8.6 6.7 1.1 1.1 3.2 2.5 4.5 3.2 1.3.7 3.1 1.9 3.9 2.7.8.8 5.2 4.1 9.8 7.4 4.5 3.4 8.2 6.5 8.2 7s.5.9 1.1.9c.6 0 1.6.6 2.3 1.2.7.7 3.7 3.3 6.6 5.8 7.8 6.6 13.4 12.5 16.6 17.5 1 1.6 2.1 3.2 2.4 3.5 1.2 1.1 5.5 12.4 6.6 17.4 1.5 6.3 1.7 8.9 1.7 17.1 0 11.6-1.6 26.6-3 28.9-.4.6-.9 1.5-1 2.1-.1.5-.4 1.7-.6 2.5-1 4.2-9.5 19.5-13.1 23.7-3 3.3-3.6 4.3-3.1 4.3.9 0-6.3 6.7-10.5 9.9-1.9 1.4-3.8 3-4.1 3.4-.3.5-1.2 1-2 1.1-.8.2-2.1.6-2.9.9-3.3 1.5-11.4 2.4-18.7 2.2-8.7-.2-13.9-2.1-23.4-8.6-6.6-4.5-20.8-18.5-20.9-20.7-.1-.4-1.4-2.3-3-4.2-1.7-1.9-3-4-3-4.6 0-.7-.3-1.4-.7-1.6-1.3-.5-6.3-7.6-6.3-8.7 0-.6-.4-1.1-1-1.1-.5 0-1-.5-1-1 0-1.4-9.8-11-11.3-11.1-.7 0-2.1-.3-3.2-.5-1.8-.4-8.9-.6-13.7-.4-1 .1-1.8.5-1.8.9s-1.1 1.3-2.4 1.9c-2.5 1.1-9.4 10.9-9.9 14-.1.9-.5 2.1-.8 2.7-.7 1.3-.4 11.1.5 15.5 1.7 8.6 8 22.1 15.9 34 10.9 16.4 20.6 27.1 34.5 38.2 6.9 5.5 23.4 12.4 32.7 13.6 6.4.9 31.1.8 35-.1 11-2.5 10.3-2.2 20.5-7 18.4-8.6 41-27.1 51.8-42.3 5.3-7.5 11.6-18.4 10.7-18.4-.3 0 .2-1.1 1.1-2.4.8-1.4 1.5-2.7 1.5-3-.1-.4 0-.8 0-1.1.3-1.3.6-2.1 1.2-3.5 2-5.3 6.6-24.9 7.3-31.5 2.6-25 2.2-45.8-1.2-62.3-1.6-7.9-1.9-8.6-7.4-20.7-2.9-6.2-11.4-20.2-13.2-21.5-.3-.3-2-2.3-3.7-4.4-1.7-2.1-3.1-3.6-3.1-3.3 0 .3-1.3-.7-2.8-2.1-3.6-3.5-11.9-10.4-19.6-16.5-3.4-2.7-6.8-5.4-7.6-6.1-.9-.6-3.8-2.7-6.5-4.6-2.8-1.8-6.2-4.3-7.7-5.4-1.4-1.2-4.1-3.2-5.9-4.6-3.3-2.5-10.8-9.1-14.1-12.3-1-.9-1.8-1.5-1.8-1.2 0 1-11.9-11.5-15.7-16.5-3.4-4.5-7.1-11.4-7.3-13.5 0-.3 0-.6-.1-.8-1.2-5.4-1.7-23.4-.7-28.2 1.4-6.3 1.7-7.7 3-11.3 3.2-9.5 16.3-25.8 23.7-29.6 4.9-2.6 14.7-4.8 20.6-4.8 4.5 0 14.7 3.5 16.5 5.7.7.8 1.7 1.5 2.3 1.5 1.4 0 8.5 6.5 13.5 12.4 6.6 7.7 7.2 8.6 7.2 9.4 0 .5 2 2.8 4.5 5.1s4.5 3.9 4.5 3.5c0-.5.5-.3 1.2.4s3.8 1.2 7 1.2c16.3 0 26.2-13.7 23.4-32.4-.4-2.7-1.1-5.6-1.6-6.5-.4-.9-.8-2-.8-2.4 0-.9-1.9-6.1-3.6-9.7-3.7-8.1-22.2-29-25.6-29-.5 0-1-.5-1-1 0-.6-.6-1-1.4-1-.8 0-1.6-.4-1.8-.8-.4-1.1-11.4-6.3-14.6-6.8-1.4-.3-2.9-.7-3.4-1-.9-.6-2.2-.8-9.8-2-6.1-.9-35.6-1.2-37.2-.3zM462.3 839.1c-1.9.7-2.1 1.5-1.9 7.4.1 3.6-.3 7-.9 7.4-.5.4-5.6.7-11.3.7-5.7-.1-10.8.2-11.4.5-1.6 1-1.7 6.7-.2 8 .7.5 5.3 1 10.3 1.1 6.6 0 9.1.4 9.1 1.3 0 3.6-10.7 24.8-17.6 34.8l-5.4 7.9 2.1 3.8c1.2 2.1 2.7 3.6 3.4 3.4.6-.3 2.2-2.2 3.6-4.4 2.5-4.1 4.8-5.2 4.5-2.3-.1 1.5.9 1.8 6.7 2.1 7.5.3 6.9-.5 6.9 10.4 0 5.3.1 5.7 2.6 6.5 3.2 1.1 6.2.6 6.3-1 .1-.7.3-3.9.4-7.2.1-3.3.3-6.6.4-7.3.1-.8 2.1-1.2 6.6-1.2 6.6 0 6.8-.1 6.8-4.3 0-.9.1-1.7.2-1.7s1.7 2.2 3.6 5c3.7 5.4 5.9 6.2 7.7 2.7 2-4 1.7-5.1-3.4-12.8-2.8-4.2-5.9-9.1-6.9-11-4.6-8.8-7.5-14.8-9.3-19.6l-2-5.3 9.9.2c5.5 0 10.2-.2 10.6-.5 1.1-1.1 1-7.8-.1-8.5-.6-.3-6.2-.6-12.5-.7h-11.5l-.2-7c-.1-3.9-.2-7.3-.3-7.6-.2-1.1-4.7-1.6-6.8-.8zm-2 51.2c-.3 13.7.5 12.3-6 12.1-6-.1-7.1-1.4-3.7-4 .7-.6 1.4-1.5 1.4-2s1.6-3.9 3.5-7.7c1.9-3.7 3.5-6.9 3.5-7.2.3-6.4 1.5 1.3 1.3 8.8zm15.7 1l5.5 11.3-6-.1-6-.1v-11.2c0-6.2.2-11.2.5-11.2.3.1 3 5.1 6 11.3zM548.4 841.4c-.4 1.1-.8 7.9-1 15.1-.3 11.2-.9 20-1.4 20-.1 0-.3.7-.5 1.5-1.1 5.3-5.8 17.6-8.6 22.5-1.7 3.1-5.8 8.4-9.1 11.7-6.1 6.2-6.1 6.4-2.5 11.2 1.4 1.9 1.6 1.9 4 .3 4.6-3 13.7-13.2 13.7-15.3 0-.4.6-1.5 1.4-2.3.8-.9 2.4-4.1 3.6-7.1 1.2-3 2.7-6.6 3.3-8 .6-1.4 1.1-2.8 1.1-3.2.3-2.5 1.5-1.3 2.1 2.1.8 4.7 6.3 16.6 10.2 21.9 2.9 4 12.1 13.2 13.1 13.2 1.3 0 2.7-1.5 4.2-4.4 1.4-2.7 1.3-2.9-2.5-6.5-5.1-4.6-10.6-12.2-13.5-18.6-2.6-5.7-5.9-15.8-6.5-19.5-1.5-9.2-1.7-12.8-1.9-23.2-.1-6.5-.5-12-.8-12.3-.3-.3-2.2-.7-4.2-.8-2.9-.3-3.7.1-4.2 1.7zM621.3 840.9c-3.2 1.6-4.1 3.8-2.4 5.6.5.6 1.2 2 1.6 3.3.6 1.9.3 2.3-1.2 2.1-1-.2-2.9 0-4.3.4l-2.5.6.3 11.6.3 11.5h3.9c2.1 0 4.1-.3 4.3-.8.3-.4 6.2-.6 13.1-.4l12.7.3-3.1 3.9c-1.7 2.2-3.4 3.9-3.8 3.9-2.5-.4-3.2.4-3.2 4.1v3.9l-13.2.3-13.3.3v9l13.3.3 13.2.3-.2 7.7-.3 7.7h-6c-5.1 0-6 .3-5.9 1.7.1 1-.2 1.8-.7 1.8-.6 0-.5.9.1 2s.7 2 .3 2c-.4 0-.2.5.3 1 1 1 6.6 1.4 15.1 1.1 4.8-.1 6.3-3.8 6-14.6-.1-4.7 0-9 .3-9.5s5.9-1.1 12.5-1.2l11.9-.3.1-3.7c.1-2-.1-4.1-.4-4.7-.4-.6-5.8-1.2-12.4-1.3l-11.7-.3 4-4.3c2.2-2.3 4-4.7 4-5.2 0-.6.4-1 .8-1 .5 0 1.4-1.1 2.1-2.3 1.1-2.1 1.8-2.3 6.2-1.9l4.9.5v-11.6c0-12.4-.5-13.5-5.2-13.1-3.1.3-3.5-.8-1.3-4.6 2.1-3.6 1.8-5.5-.9-6.8-4.3-1.9-5.8-.9-8.2 5.4-1.9 5.1-2.5 5.9-4.8 6-2.2.1-2.8-.5-3.7-3.9-1.3-5-3.7-8.7-5.6-8.7-.7 0-2.4.7-3.8 1.6-2.3 1.5-2.3 1.7-.9 5.6 1.8 5.2 1.8 5.8-.4 5.8-1.2 0-2.6-1.8-4.2-5.6-1.4-3.1-2.9-5.9-3.5-6.4-.5-.4-2.5 0-4.2.9zm37.5 22.4l.3 2.7-18.7-.2c-18.4-.3-18.7-.3-19-2.5-.5-2.8-.1-2.8 20.6-2.8h16.5l.3 2.8zM724.5 841.4c-.3 1.2-.6 4.8-.7 8.1l-.3 6-4.2.1c-3.9 0-4.1-.1-3.8-2.5.1-1.4.4-2.6.5-2.6.7 0 .6-6.2-.1-7.1-1-1.2-7.2-1.3-7.8-.2-.8 1.6-3.2 12.5-3.7 16.7-.2 2.5-.9 5.1-1.6 5.8-.6.7-.8 1.3-.4 1.3.3 0 .1 1.2-.5 2.7-.6 1.6-1.2 3.5-1.4 4.3-.2.8-.8 3-1.4 4.7-.7 2.6-.6 3.6.5 4.7 2.1 2.1 5.3 2.9 6.8 1.7 1-.8 1.2-.4 1.1 2-.1 1.6.3 3.3.9 3.7.6.4 4.3.7 8.1.7h7l.3 11.5.3 11.6-11.3-.1c-6.2-.1-11.9 0-12.5.3-2.1.7-1.6 8 .5 8.6 2.2.6 52.2.6 54.5 0 1.2-.4 1.7-1.6 1.7-4.4 0-4.6-.7-4.8-13.3-4.6-4.9.1-9-.1-9.3-.6-.4-.6-.7-11.6-.5-19.9.1-2.6.2-2.6 7.4-2.4 3.9.1 7.8 0 8.5-.3.7-.2 1.2-2.2 1.2-4.8V882h-8.5c-7.4 0-8.5-.2-8.6-1.8 0-.9-.1-3.6-.3-6-.1-2.3.2-4.2.6-4.2.5 0 .4-.9-.2-1.9-1.5-2.9 0-3.4 10.4-3.6 5-.2 9.4-.3 9.7-.4.7-.1.4-6.5-.4-7.7-.3-.6-4.7-.9-9.7-.9-5 0-9.4-.3-9.7-.9-.3-.5-.6-3.6-.5-6.9.1-6.8-.9-8.2-5.6-8.3-2.5 0-3.4.5-3.7 2zm-.5 31.8v8.7l-8.4.3-8.4.3 1.3-2.5c.7-1.4 1.5-3.9 1.9-5.5 2.5-10.6 2-10 8.1-10h5.5v8.7zM809.1 842.9c-4.4 6-20 22.1-21.2 22.1-1.8 0-2.9 3.9-1.8 6.7 1.5 4.1 2.9 4.4 6.4 1.7 3.8-2.9 4.7-3 4.3-.7-.3 1.7 1.3 1.8 19 2.1 18.7.2 19.2.2 19.2-1.8 0-2.6 1.4-2.5 4.2.3 2.5 2.4 5.3 3 5.3 1 0-.6.3-1.5.8-1.9 1-1 .9-6.4-.1-6.4-1.3 0-13-11.6-19.2-19-6.8-8.1-6.8-8-10.9-7.8-2.5.2-4 1.1-6 3.7zM821 855c2.5 3.3 4.8 5.9 5.2 6 .4 0 1.6 1.3 2.6 2.8l2 2.8-14.9-.1c-8.2 0-14.9-.3-14.9-.6s1.5-2 3.3-3.7c3.2-3.1 8.5-9.3 10-11.8 1.2-2.2 1.9-1.7 6.7 4.6zM354.3 843.9c-1.1.8-1.1 79.1 0 80.8.9 1.4 5.6 1.4 7.4 0 .6-.4 1-1.4.7-2.2-.9-2.3 1.7-2.8 15.4-2.8 12.1 0 13.6.1 13.8 1.7.5 3.7 1.3 4.3 4.8 4.2 1.9-.1 3.8-.5 4.1-.8.8-.8 1-79.3.2-80.6-.7-1.1-44.8-1.4-46.4-.3zm37.3 20.3l.1 11.5-14.6-.1-14.6-.1v-11.2c-.1-13.1-1.9-11.8 16.5-11.7h12.5l.1 11.6zm-.5 20.7c.4.1.7 6 .6 13.1v13.1l-14.6-.3-14.6-.3v-26l14 .2c7.7 0 14.3.1 14.6.2zM791 885c-3.3.5-3.5.7-3.3 3.9.1 1.8.3 3.5.5 3.7.2.2 4 .4 8.5.5l8.1.2-1.3 3.8c-.8 2.2-1.3 3.9-1.1 3.9.2 0-.7 3-1.9 6.7-2.1 6.7-2.2 6.8-6.1 7.1-4.3.4-5.4 1.4-5.4 5.3 0 3.4 2.1 5.1 5.6 4.5 1.6-.3 5.4-.7 8.4-1.1 8.2-.9 18.3-2.3 22.5-3.2 8.5-1.8 8.5-1.8 9.1 1.5.9 4.6 2.8 5.8 6.2 4.1 1.5-.8 3-1.8 3.3-2.2.6-.8-2.9-10.4-6.6-18.4-.8-1.7-1.5-3.6-1.5-4.1 0-.6-.8-2.4-1.7-4.1-1.4-2.3-2.3-2.9-3.8-2.5-3.3 1-6 4.1-4.8 5.6.5.7 1.7 3.2 2.6 5.5l1.7 4.3-2.8.5c-1.5.4-3.5 1-4.4 1.6-1 .5-1.8.5-1.8.1 0-.5-2.5-.3-5.6.5-3.1.8-5.8 1.3-6 1-.4-.4 2.2-12.7 3.4-15.7.7-1.9.9-2.8 1.1-4 .1-.6 5.7-1 14.6-1 12.7 0 14.5-.2 15.4-1.8.6-1.1.5-2.6-.2-4.2l-1.2-2.5h-24c-13.2 0-25.6.2-27.5.5z"/></svg>